<?xml version="1.0" encoding="utf-8" standalone="no"?>
<!DOCTYPE svg PUBLIC "-//W3C//DTD SVG 1.1//EN"
  "http://www.w3.org/Graphics/SVG/1.1/DTD/svg11.dtd">
<!-- Created with matplotlib (http://matplotlib.org/) -->
<svg height="720pt" version="1.1" viewBox="0 0 432 720" width="432pt" xmlns="http://www.w3.org/2000/svg" xmlns:xlink="http://www.w3.org/1999/xlink">
 <defs>
  <style type="text/css">
*{stroke-linecap:butt;stroke-linejoin:round;}
  </style>
 </defs>
 <g id="figure_1">
  <g id="patch_1">
   <path d="M 0 720 
L 432 720 
L 432 0 
L 0 0 
z
" style="fill:#ffffff;"/>
  </g>
  <g id="axes_1">
   <g id="patch_2">
    <path d="M 54 630 
L 388.8 630 
L 388.8 86.4 
L 54 86.4 
z
" style="fill:#ffffff;"/>
   </g>
   <g id="matplotlib.axis_1">
    <g id="xtick_1">
     <g id="text_1">
      <!-- Like -->
      <defs>
       <path d="M 7.328125 0 
L 7.328125 71.578125 
L 16.796875 71.578125 
L 16.796875 8.453125 
L 52.046875 8.453125 
L 52.046875 0 
z
" id="ArialMT-4c"/>
       <path d="M 6.640625 61.46875 
L 6.640625 71.578125 
L 15.4375 71.578125 
L 15.4375 61.46875 
z
M 6.640625 0 
L 6.640625 51.859375 
L 15.4375 51.859375 
L 15.4375 0 
z
" id="ArialMT-69"/>
       <path d="M 6.640625 0 
L 6.640625 71.578125 
L 15.4375 71.578125 
L 15.4375 30.765625 
L 36.234375 51.859375 
L 47.609375 51.859375 
L 27.78125 32.625 
L 49.609375 0 
L 38.765625 0 
L 21.625 26.515625 
L 15.4375 20.5625 
L 15.4375 0 
z
" id="ArialMT-6b"/>
       <path d="M 42.09375 16.703125 
L 51.171875 15.578125 
Q 49.03125 7.625 43.21875 3.21875 
Q 37.40625 -1.171875 28.375 -1.171875 
Q 17 -1.171875 10.328125 5.828125 
Q 3.65625 12.84375 3.65625 25.484375 
Q 3.65625 38.578125 10.390625 45.796875 
Q 17.140625 53.03125 27.875 53.03125 
Q 38.28125 53.03125 44.875 45.953125 
Q 51.46875 38.875 51.46875 26.03125 
Q 51.46875 25.25 51.421875 23.6875 
L 12.75 23.6875 
Q 13.234375 15.140625 17.578125 10.59375 
Q 21.921875 6.0625 28.421875 6.0625 
Q 33.25 6.0625 36.671875 8.59375 
Q 40.09375 11.140625 42.09375 16.703125 
z
M 13.234375 30.90625 
L 42.1875 30.90625 
Q 41.609375 37.453125 38.875 40.71875 
Q 34.671875 45.796875 27.984375 45.796875 
Q 21.921875 45.796875 17.796875 41.75 
Q 13.671875 37.703125 13.234375 30.90625 
z
" id="ArialMT-65"/>
      </defs>
      <g style="fill:#262626;" transform="translate(106.584452 652.384063)scale(0.18 -0.18)">
       <use xlink:href="#ArialMT-4c"/>
       <use x="55.615234" xlink:href="#ArialMT-69"/>
       <use x="77.832031" xlink:href="#ArialMT-6b"/>
       <use x="127.832031" xlink:href="#ArialMT-65"/>
      </g>
     </g>
    </g>
    <g id="xtick_2">
     <g id="text_2">
      <!-- Dislike -->
      <defs>
       <path d="M 7.71875 0 
L 7.71875 71.578125 
L 32.375 71.578125 
Q 40.71875 71.578125 45.125 70.5625 
Q 51.265625 69.140625 55.609375 65.4375 
Q 61.28125 60.640625 64.078125 53.1875 
Q 66.890625 45.75 66.890625 36.1875 
Q 66.890625 28.03125 64.984375 21.734375 
Q 63.09375 15.4375 60.109375 11.296875 
Q 57.125 7.171875 53.578125 4.796875 
Q 50.046875 2.4375 45.046875 1.21875 
Q 40.046875 0 33.546875 0 
z
M 17.1875 8.453125 
L 32.46875 8.453125 
Q 39.546875 8.453125 43.578125 9.765625 
Q 47.609375 11.078125 50 13.484375 
Q 53.375 16.84375 55.25 22.53125 
Q 57.125 28.21875 57.125 36.328125 
Q 57.125 47.5625 53.4375 53.59375 
Q 49.75 59.625 44.484375 61.671875 
Q 40.671875 63.140625 32.234375 63.140625 
L 17.1875 63.140625 
z
" id="ArialMT-44"/>
       <path d="M 3.078125 15.484375 
L 11.765625 16.84375 
Q 12.5 11.625 15.84375 8.84375 
Q 19.1875 6.0625 25.203125 6.0625 
Q 31.25 6.0625 34.171875 8.515625 
Q 37.109375 10.984375 37.109375 14.3125 
Q 37.109375 17.28125 34.515625 19 
Q 32.71875 20.171875 25.53125 21.96875 
Q 15.875 24.421875 12.140625 26.203125 
Q 8.40625 27.984375 6.46875 31.125 
Q 4.546875 34.28125 4.546875 38.09375 
Q 4.546875 41.546875 6.125 44.5 
Q 7.71875 47.46875 10.453125 49.421875 
Q 12.5 50.921875 16.03125 51.96875 
Q 19.578125 53.03125 23.640625 53.03125 
Q 29.734375 53.03125 34.34375 51.265625 
Q 38.96875 49.515625 41.15625 46.5 
Q 43.359375 43.5 44.1875 38.484375 
L 35.59375 37.3125 
Q 35.015625 41.3125 32.203125 43.546875 
Q 29.390625 45.796875 24.265625 45.796875 
Q 18.21875 45.796875 15.625 43.796875 
Q 13.03125 41.796875 13.03125 39.109375 
Q 13.03125 37.40625 14.109375 36.03125 
Q 15.1875 34.625 17.484375 33.6875 
Q 18.796875 33.203125 25.25 31.453125 
Q 34.578125 28.953125 38.25 27.359375 
Q 41.9375 25.78125 44.03125 22.75 
Q 46.140625 19.734375 46.140625 15.234375 
Q 46.140625 10.84375 43.578125 6.953125 
Q 41.015625 3.078125 36.171875 0.953125 
Q 31.34375 -1.171875 25.25 -1.171875 
Q 15.140625 -1.171875 9.84375 3.03125 
Q 4.546875 7.234375 3.078125 15.484375 
z
" id="ArialMT-73"/>
       <path d="M 6.390625 0 
L 6.390625 71.578125 
L 15.1875 71.578125 
L 15.1875 0 
z
" id="ArialMT-6c"/>
      </defs>
      <g style="fill:#262626;" transform="translate(289.901393 652.384063)scale(0.18 -0.18)">
       <use xlink:href="#ArialMT-44"/>
       <use x="72.216797" xlink:href="#ArialMT-69"/>
       <use x="94.433594" xlink:href="#ArialMT-73"/>
       <use x="144.433594" xlink:href="#ArialMT-6c"/>
       <use x="166.650391" xlink:href="#ArialMT-69"/>
       <use x="188.867188" xlink:href="#ArialMT-6b"/>
       <use x="238.867188" xlink:href="#ArialMT-65"/>
      </g>
     </g>
    </g>
   </g>
   <g id="matplotlib.axis_2">
    <g id="ytick_1">
     <g id="text_3">
      <!-- −4 -->
      <defs>
       <path d="M 52.828125 31.203125 
L 5.5625 31.203125 
L 5.5625 39.40625 
L 52.828125 39.40625 
z
" id="ArialMT-2212"/>
       <path d="M 32.328125 0 
L 32.328125 17.140625 
L 1.265625 17.140625 
L 1.265625 25.203125 
L 33.9375 71.578125 
L 41.109375 71.578125 
L 41.109375 25.203125 
L 50.78125 25.203125 
L 50.78125 17.140625 
L 41.109375 17.140625 
L 41.109375 0 
z
M 32.328125 25.203125 
L 32.328125 57.46875 
L 9.90625 25.203125 
z
" id="ArialMT-34"/>
      </defs>
      <g style="fill:#262626;" transform="translate(25.687422 563.678844)scale(0.165 -0.165)">
       <use xlink:href="#ArialMT-2212"/>
       <use x="58.398438" xlink:href="#ArialMT-34"/>
      </g>
     </g>
    </g>
    <g id="ytick_2">
     <g id="text_4">
      <!-- −2 -->
      <defs>
       <path d="M 50.34375 8.453125 
L 50.34375 0 
L 3.03125 0 
Q 2.9375 3.171875 4.046875 6.109375 
Q 5.859375 10.9375 9.828125 15.625 
Q 13.8125 20.3125 21.34375 26.46875 
Q 33.015625 36.03125 37.109375 41.625 
Q 41.21875 47.21875 41.21875 52.203125 
Q 41.21875 57.421875 37.46875 61 
Q 33.734375 64.59375 27.734375 64.59375 
Q 21.390625 64.59375 17.578125 60.78125 
Q 13.765625 56.984375 13.71875 50.25 
L 4.6875 51.171875 
Q 5.609375 61.28125 11.65625 66.578125 
Q 17.71875 71.875 27.9375 71.875 
Q 38.234375 71.875 44.234375 66.15625 
Q 50.25 60.453125 50.25 52 
Q 50.25 47.703125 48.484375 43.546875 
Q 46.734375 39.40625 42.65625 34.8125 
Q 38.578125 30.21875 29.109375 22.21875 
Q 21.1875 15.578125 18.9375 13.203125 
Q 16.703125 10.84375 15.234375 8.453125 
z
" id="ArialMT-32"/>
      </defs>
      <g style="fill:#262626;" transform="translate(25.687422 473.264638)scale(0.165 -0.165)">
       <use xlink:href="#ArialMT-2212"/>
       <use x="58.398438" xlink:href="#ArialMT-32"/>
      </g>
     </g>
    </g>
    <g id="ytick_3">
     <g id="text_5">
      <!-- 0 -->
      <defs>
       <path d="M 4.15625 35.296875 
Q 4.15625 48 6.765625 55.734375 
Q 9.375 63.484375 14.515625 67.671875 
Q 19.671875 71.875 27.484375 71.875 
Q 33.25 71.875 37.59375 69.546875 
Q 41.9375 67.234375 44.765625 62.859375 
Q 47.609375 58.5 49.21875 52.21875 
Q 50.828125 45.953125 50.828125 35.296875 
Q 50.828125 22.703125 48.234375 14.96875 
Q 45.65625 7.234375 40.5 3 
Q 35.359375 -1.21875 27.484375 -1.21875 
Q 17.140625 -1.21875 11.234375 6.203125 
Q 4.15625 15.140625 4.15625 35.296875 
z
M 13.1875 35.296875 
Q 13.1875 17.671875 17.3125 11.828125 
Q 21.4375 6 27.484375 6 
Q 33.546875 6 37.671875 11.859375 
Q 41.796875 17.71875 41.796875 35.296875 
Q 41.796875 52.984375 37.671875 58.78125 
Q 33.546875 64.59375 27.390625 64.59375 
Q 21.34375 64.59375 17.71875 59.46875 
Q 13.1875 52.9375 13.1875 35.296875 
z
" id="ArialMT-30"/>
      </defs>
      <g style="fill:#262626;" transform="translate(35.324453 382.850432)scale(0.165 -0.165)">
       <use xlink:href="#ArialMT-30"/>
      </g>
     </g>
    </g>
    <g id="ytick_4">
     <g id="text_6">
      <!-- 2 -->
      <g style="fill:#262626;" transform="translate(35.324453 292.436227)scale(0.165 -0.165)">
       <use xlink:href="#ArialMT-32"/>
      </g>
     </g>
    </g>
    <g id="ytick_5">
     <g id="text_7">
      <!-- 4 -->
      <g style="fill:#262626;" transform="translate(35.324453 202.022021)scale(0.165 -0.165)">
       <use xlink:href="#ArialMT-34"/>
      </g>
     </g>
    </g>
    <g id="ytick_6">
     <g id="text_8">
      <!-- 6 -->
      <defs>
       <path d="M 49.75 54.046875 
L 41.015625 53.375 
Q 39.84375 58.546875 37.703125 60.890625 
Q 34.125 64.65625 28.90625 64.65625 
Q 24.703125 64.65625 21.53125 62.3125 
Q 17.390625 59.28125 14.984375 53.46875 
Q 12.59375 47.65625 12.5 36.921875 
Q 15.671875 41.75 20.265625 44.09375 
Q 24.859375 46.4375 29.890625 46.4375 
Q 38.671875 46.4375 44.84375 39.96875 
Q 51.03125 33.5 51.03125 23.25 
Q 51.03125 16.5 48.125 10.71875 
Q 45.21875 4.9375 40.140625 1.859375 
Q 35.0625 -1.21875 28.609375 -1.21875 
Q 17.625 -1.21875 10.6875 6.859375 
Q 3.765625 14.9375 3.765625 33.5 
Q 3.765625 54.25 11.421875 63.671875 
Q 18.109375 71.875 29.4375 71.875 
Q 37.890625 71.875 43.28125 67.140625 
Q 48.6875 62.40625 49.75 54.046875 
z
M 13.875 23.1875 
Q 13.875 18.65625 15.796875 14.5 
Q 17.71875 10.359375 21.1875 8.171875 
Q 24.65625 6 28.46875 6 
Q 34.03125 6 38.03125 10.484375 
Q 42.046875 14.984375 42.046875 22.703125 
Q 42.046875 30.125 38.078125 34.390625 
Q 34.125 38.671875 28.125 38.671875 
Q 22.171875 38.671875 18.015625 34.390625 
Q 13.875 30.125 13.875 23.1875 
z
" id="ArialMT-36"/>
      </defs>
      <g style="fill:#262626;" transform="translate(35.324453 111.607815)scale(0.165 -0.165)">
       <use xlink:href="#ArialMT-36"/>
      </g>
     </g>
    </g>
    <g id="text_9">
     <!-- Choice Logistic Slopes -->
     <defs>
      <path d="M 58.796875 25.09375 
L 68.265625 22.703125 
Q 65.28125 11.03125 57.546875 4.90625 
Q 49.8125 -1.21875 38.625 -1.21875 
Q 27.046875 -1.21875 19.796875 3.484375 
Q 12.546875 8.203125 8.765625 17.140625 
Q 4.984375 26.078125 4.984375 36.328125 
Q 4.984375 47.515625 9.25 55.828125 
Q 13.53125 64.15625 21.40625 68.46875 
Q 29.296875 72.796875 38.765625 72.796875 
Q 49.515625 72.796875 56.828125 67.328125 
Q 64.15625 61.859375 67.046875 51.953125 
L 57.71875 49.75 
Q 55.21875 57.5625 50.484375 61.125 
Q 45.75 64.703125 38.578125 64.703125 
Q 30.328125 64.703125 24.78125 60.734375 
Q 19.234375 56.78125 16.984375 50.109375 
Q 14.75 43.453125 14.75 36.375 
Q 14.75 27.25 17.40625 20.4375 
Q 20.0625 13.625 25.671875 10.25 
Q 31.296875 6.890625 37.84375 6.890625 
Q 45.796875 6.890625 51.3125 11.46875 
Q 56.84375 16.0625 58.796875 25.09375 
z
" id="ArialMT-43"/>
      <path d="M 6.59375 0 
L 6.59375 71.578125 
L 15.375 71.578125 
L 15.375 45.90625 
Q 21.53125 53.03125 30.90625 53.03125 
Q 36.671875 53.03125 40.921875 50.75 
Q 45.171875 48.484375 47 44.484375 
Q 48.828125 40.484375 48.828125 32.859375 
L 48.828125 0 
L 40.046875 0 
L 40.046875 32.859375 
Q 40.046875 39.453125 37.1875 42.453125 
Q 34.328125 45.453125 29.109375 45.453125 
Q 25.203125 45.453125 21.75 43.421875 
Q 18.3125 41.40625 16.84375 37.9375 
Q 15.375 34.46875 15.375 28.375 
L 15.375 0 
z
" id="ArialMT-68"/>
      <path d="M 3.328125 25.921875 
Q 3.328125 40.328125 11.328125 47.265625 
Q 18.015625 53.03125 27.640625 53.03125 
Q 38.328125 53.03125 45.109375 46.015625 
Q 51.90625 39.015625 51.90625 26.65625 
Q 51.90625 16.65625 48.90625 10.90625 
Q 45.90625 5.171875 40.15625 2 
Q 34.421875 -1.171875 27.640625 -1.171875 
Q 16.75 -1.171875 10.03125 5.8125 
Q 3.328125 12.796875 3.328125 25.921875 
z
M 12.359375 25.921875 
Q 12.359375 15.96875 16.703125 11.015625 
Q 21.046875 6.0625 27.640625 6.0625 
Q 34.1875 6.0625 38.53125 11.03125 
Q 42.875 16.015625 42.875 26.21875 
Q 42.875 35.84375 38.5 40.796875 
Q 34.125 45.75 27.640625 45.75 
Q 21.046875 45.75 16.703125 40.8125 
Q 12.359375 35.890625 12.359375 25.921875 
z
" id="ArialMT-6f"/>
      <path d="M 40.4375 19 
L 49.078125 17.875 
Q 47.65625 8.9375 41.8125 3.875 
Q 35.984375 -1.171875 27.484375 -1.171875 
Q 16.84375 -1.171875 10.375 5.78125 
Q 3.90625 12.75 3.90625 25.734375 
Q 3.90625 34.125 6.6875 40.421875 
Q 9.46875 46.734375 15.15625 49.875 
Q 20.84375 53.03125 27.546875 53.03125 
Q 35.984375 53.03125 41.359375 48.75 
Q 46.734375 44.484375 48.25 36.625 
L 39.703125 35.296875 
Q 38.484375 40.53125 35.375 43.15625 
Q 32.28125 45.796875 27.875 45.796875 
Q 21.234375 45.796875 17.078125 41.03125 
Q 12.9375 36.28125 12.9375 25.984375 
Q 12.9375 15.53125 16.9375 10.796875 
Q 20.953125 6.0625 27.390625 6.0625 
Q 32.5625 6.0625 36.03125 9.234375 
Q 39.5 12.40625 40.4375 19 
z
" id="ArialMT-63"/>
      <path id="ArialMT-20"/>
      <path d="M 4.984375 -4.296875 
L 13.53125 -5.5625 
Q 14.0625 -9.515625 16.5 -11.328125 
Q 19.78125 -13.765625 25.4375 -13.765625 
Q 31.546875 -13.765625 34.859375 -11.328125 
Q 38.1875 -8.890625 39.359375 -4.5 
Q 40.046875 -1.8125 39.984375 6.78125 
Q 34.234375 0 25.640625 0 
Q 14.9375 0 9.078125 7.71875 
Q 3.21875 15.4375 3.21875 26.21875 
Q 3.21875 33.640625 5.90625 39.90625 
Q 8.59375 46.1875 13.6875 49.609375 
Q 18.796875 53.03125 25.6875 53.03125 
Q 34.859375 53.03125 40.828125 45.609375 
L 40.828125 51.859375 
L 48.921875 51.859375 
L 48.921875 7.03125 
Q 48.921875 -5.078125 46.453125 -10.125 
Q 44 -15.1875 38.640625 -18.109375 
Q 33.296875 -21.046875 25.484375 -21.046875 
Q 16.21875 -21.046875 10.5 -16.875 
Q 4.78125 -12.703125 4.984375 -4.296875 
z
M 12.25 26.859375 
Q 12.25 16.65625 16.296875 11.96875 
Q 20.359375 7.28125 26.46875 7.28125 
Q 32.515625 7.28125 36.609375 11.9375 
Q 40.71875 16.609375 40.71875 26.5625 
Q 40.71875 36.078125 36.5 40.90625 
Q 32.28125 45.75 26.3125 45.75 
Q 20.453125 45.75 16.34375 40.984375 
Q 12.25 36.234375 12.25 26.859375 
z
" id="ArialMT-67"/>
      <path d="M 25.78125 7.859375 
L 27.046875 0.09375 
Q 23.34375 -0.6875 20.40625 -0.6875 
Q 15.625 -0.6875 12.984375 0.828125 
Q 10.359375 2.34375 9.28125 4.8125 
Q 8.203125 7.28125 8.203125 15.1875 
L 8.203125 45.015625 
L 1.765625 45.015625 
L 1.765625 51.859375 
L 8.203125 51.859375 
L 8.203125 64.703125 
L 16.9375 69.96875 
L 16.9375 51.859375 
L 25.78125 51.859375 
L 25.78125 45.015625 
L 16.9375 45.015625 
L 16.9375 14.703125 
Q 16.9375 10.9375 17.40625 9.859375 
Q 17.875 8.796875 18.921875 8.15625 
Q 19.96875 7.515625 21.921875 7.515625 
Q 23.390625 7.515625 25.78125 7.859375 
z
" id="ArialMT-74"/>
      <path d="M 4.5 23 
L 13.421875 23.78125 
Q 14.0625 18.40625 16.375 14.96875 
Q 18.703125 11.53125 23.578125 9.40625 
Q 28.46875 7.28125 34.578125 7.28125 
Q 39.984375 7.28125 44.140625 8.890625 
Q 48.296875 10.5 50.3125 13.296875 
Q 52.34375 16.109375 52.34375 19.4375 
Q 52.34375 22.796875 50.390625 25.3125 
Q 48.4375 27.828125 43.953125 29.546875 
Q 41.0625 30.671875 31.203125 33.03125 
Q 21.34375 35.40625 17.390625 37.5 
Q 12.25 40.1875 9.734375 44.15625 
Q 7.234375 48.140625 7.234375 53.078125 
Q 7.234375 58.5 10.296875 63.203125 
Q 13.375 67.921875 19.28125 70.359375 
Q 25.203125 72.796875 32.421875 72.796875 
Q 40.375 72.796875 46.453125 70.234375 
Q 52.546875 67.671875 55.8125 62.6875 
Q 59.078125 57.71875 59.328125 51.421875 
L 50.25 50.734375 
Q 49.515625 57.515625 45.28125 60.984375 
Q 41.0625 64.453125 32.8125 64.453125 
Q 24.21875 64.453125 20.28125 61.296875 
Q 16.359375 58.15625 16.359375 53.71875 
Q 16.359375 49.859375 19.140625 47.359375 
Q 21.875 44.875 33.421875 42.265625 
Q 44.96875 39.65625 49.265625 37.703125 
Q 55.515625 34.8125 58.484375 30.390625 
Q 61.46875 25.984375 61.46875 20.21875 
Q 61.46875 14.5 58.203125 9.4375 
Q 54.9375 4.390625 48.796875 1.578125 
Q 42.671875 -1.21875 35.015625 -1.21875 
Q 25.296875 -1.21875 18.71875 1.609375 
Q 12.15625 4.4375 8.421875 10.125 
Q 4.6875 15.828125 4.5 23 
z
" id="ArialMT-53"/>
      <path d="M 6.59375 -19.875 
L 6.59375 51.859375 
L 14.59375 51.859375 
L 14.59375 45.125 
Q 17.4375 49.078125 21 51.046875 
Q 24.5625 53.03125 29.640625 53.03125 
Q 36.28125 53.03125 41.359375 49.609375 
Q 46.4375 46.1875 49.015625 39.953125 
Q 51.609375 33.734375 51.609375 26.3125 
Q 51.609375 18.359375 48.75 11.984375 
Q 45.90625 5.609375 40.453125 2.21875 
Q 35.015625 -1.171875 29 -1.171875 
Q 24.609375 -1.171875 21.109375 0.6875 
Q 17.625 2.546875 15.375 5.375 
L 15.375 -19.875 
z
M 14.546875 25.640625 
Q 14.546875 15.625 18.59375 10.84375 
Q 22.65625 6.0625 28.421875 6.0625 
Q 34.28125 6.0625 38.453125 11.015625 
Q 42.625 15.96875 42.625 26.375 
Q 42.625 36.28125 38.546875 41.203125 
Q 34.46875 46.140625 28.8125 46.140625 
Q 23.1875 46.140625 18.859375 40.890625 
Q 14.546875 35.640625 14.546875 25.640625 
z
" id="ArialMT-70"/>
     </defs>
     <g style="fill:#262626;" transform="translate(17.898984 449.24625)rotate(-90)scale(0.18 -0.18)">
      <use xlink:href="#ArialMT-43"/>
      <use x="72.216797" xlink:href="#ArialMT-68"/>
      <use x="127.832031" xlink:href="#ArialMT-6f"/>
      <use x="183.447266" xlink:href="#ArialMT-69"/>
      <use x="205.664062" xlink:href="#ArialMT-63"/>
      <use x="255.664062" xlink:href="#ArialMT-65"/>
      <use x="311.279297" xlink:href="#ArialMT-20"/>
      <use x="339.0625" xlink:href="#ArialMT-4c"/>
      <use x="394.677734" xlink:href="#ArialMT-6f"/>
      <use x="450.292969" xlink:href="#ArialMT-67"/>
      <use x="505.908203" xlink:href="#ArialMT-69"/>
      <use x="528.125" xlink:href="#ArialMT-73"/>
      <use x="578.125" xlink:href="#ArialMT-74"/>
      <use x="605.908203" xlink:href="#ArialMT-69"/>
      <use x="628.125" xlink:href="#ArialMT-63"/>
      <use x="678.125" xlink:href="#ArialMT-20"/>
      <use x="705.908203" xlink:href="#ArialMT-53"/>
      <use x="772.607422" xlink:href="#ArialMT-6c"/>
      <use x="794.824219" xlink:href="#ArialMT-6f"/>
      <use x="850.439453" xlink:href="#ArialMT-70"/>
      <use x="906.054688" xlink:href="#ArialMT-65"/>
      <use x="961.669922" xlink:href="#ArialMT-73"/>
     </g>
    </g>
   </g>
   <g id="PathCollection_1">
    <defs>
     <path d="M 0 3 
C 0.795609 3 1.55874 2.683901 2.12132 2.12132 
C 2.683901 1.55874 3 0.795609 3 0 
C 3 -0.795609 2.683901 -1.55874 2.12132 -2.12132 
C 1.55874 -2.683901 0.795609 -3 0 -3 
C -0.795609 -3 -1.55874 -2.683901 -2.12132 -2.12132 
C -2.683901 -1.55874 -3 -0.795609 -3 0 
C -3 0.795609 -2.683901 1.55874 -2.12132 2.12132 
C -1.55874 2.683901 -0.795609 3 0 3 
z
" id="m76ee1b0efc" style="stroke:#4f6a9a;stroke-opacity:0.7;"/>
    </defs>
    <g clip-path="url(#pd7f6fdafe9)">
     <use style="fill:#4f6a9a;fill-opacity:0.7;stroke:#4f6a9a;stroke-opacity:0.7;" x="147.138092" xlink:href="#m76ee1b0efc" y="260.056575"/>
     <use style="fill:#4f6a9a;fill-opacity:0.7;stroke:#4f6a9a;stroke-opacity:0.7;" x="119.817872" xlink:href="#m76ee1b0efc" y="285.240066"/>
     <use style="fill:#4f6a9a;fill-opacity:0.7;stroke:#4f6a9a;stroke-opacity:0.7;" x="162.168106" xlink:href="#m76ee1b0efc" y="265.122778"/>
     <use style="fill:#4f6a9a;fill-opacity:0.7;stroke:#4f6a9a;stroke-opacity:0.7;" x="156.63567" xlink:href="#m76ee1b0efc" y="272.309878"/>
     <use style="fill:#4f6a9a;fill-opacity:0.7;stroke:#4f6a9a;stroke-opacity:0.7;" x="146.546349" xlink:href="#m76ee1b0efc" y="227.708407"/>
     <use style="fill:#4f6a9a;fill-opacity:0.7;stroke:#4f6a9a;stroke-opacity:0.7;" x="140.272889" xlink:href="#m76ee1b0efc" y="311.653887"/>
     <use style="fill:#4f6a9a;fill-opacity:0.7;stroke:#4f6a9a;stroke-opacity:0.7;" x="90.623284" xlink:href="#m76ee1b0efc" y="346.335186"/>
     <use style="fill:#4f6a9a;fill-opacity:0.7;stroke:#4f6a9a;stroke-opacity:0.7;" x="173.058614" xlink:href="#m76ee1b0efc" y="314.383996"/>
     <use style="fill:#4f6a9a;fill-opacity:0.7;stroke:#4f6a9a;stroke-opacity:0.7;" x="122.308624" xlink:href="#m76ee1b0efc" y="375.229422"/>
     <use style="fill:#4f6a9a;fill-opacity:0.7;stroke:#4f6a9a;stroke-opacity:0.7;" x="107.787246" xlink:href="#m76ee1b0efc" y="111.358578"/>
     <use style="fill:#4f6a9a;fill-opacity:0.7;stroke:#4f6a9a;stroke-opacity:0.7;" x="177.154264" xlink:href="#m76ee1b0efc" y="324.391862"/>
     <use style="fill:#4f6a9a;fill-opacity:0.7;stroke:#4f6a9a;stroke-opacity:0.7;" x="176.564769" xlink:href="#m76ee1b0efc" y="323.609259"/>
     <use style="fill:#4f6a9a;fill-opacity:0.7;stroke:#4f6a9a;stroke-opacity:0.7;" x="121.466457" xlink:href="#m76ee1b0efc" y="331.438655"/>
     <use style="fill:#4f6a9a;fill-opacity:0.7;stroke:#4f6a9a;stroke-opacity:0.7;" x="115.530117" xlink:href="#m76ee1b0efc" y="294.15968"/>
     <use style="fill:#4f6a9a;fill-opacity:0.7;stroke:#4f6a9a;stroke-opacity:0.7;" x="111.210673" xlink:href="#m76ee1b0efc" y="193.842477"/>
     <use style="fill:#4f6a9a;fill-opacity:0.7;stroke:#4f6a9a;stroke-opacity:0.7;" x="94.92822" xlink:href="#m76ee1b0efc" y="271.762535"/>
     <use style="fill:#4f6a9a;fill-opacity:0.7;stroke:#4f6a9a;stroke-opacity:0.7;" x="179.169831" xlink:href="#m76ee1b0efc" y="247.785671"/>
     <use style="fill:#4f6a9a;fill-opacity:0.7;stroke:#4f6a9a;stroke-opacity:0.7;" x="106.001706" xlink:href="#m76ee1b0efc" y="252.622102"/>
     <use style="fill:#4f6a9a;fill-opacity:0.7;stroke:#4f6a9a;stroke-opacity:0.7;" x="72.511855" xlink:href="#m76ee1b0efc" y="374.620583"/>
     <use style="fill:#4f6a9a;fill-opacity:0.7;stroke:#4f6a9a;stroke-opacity:0.7;" x="109.317465" xlink:href="#m76ee1b0efc" y="351.764492"/>
     <use style="fill:#4f6a9a;fill-opacity:0.7;stroke:#4f6a9a;stroke-opacity:0.7;" x="72.303438" xlink:href="#m76ee1b0efc" y="316.526915"/>
     <use style="fill:#4f6a9a;fill-opacity:0.7;stroke:#4f6a9a;stroke-opacity:0.7;" x="141.573623" xlink:href="#m76ee1b0efc" y="341.885731"/>
     <use style="fill:#4f6a9a;fill-opacity:0.7;stroke:#4f6a9a;stroke-opacity:0.7;" x="139.188561" xlink:href="#m76ee1b0efc" y="313.209341"/>
     <use style="fill:#4f6a9a;fill-opacity:0.7;stroke:#4f6a9a;stroke-opacity:0.7;" x="145.414848" xlink:href="#m76ee1b0efc" y="342.950323"/>
     <use style="fill:#4f6a9a;fill-opacity:0.7;stroke:#4f6a9a;stroke-opacity:0.7;" x="115.344083" xlink:href="#m76ee1b0efc" y="285.973827"/>
     <use style="fill:#4f6a9a;fill-opacity:0.7;stroke:#4f6a9a;stroke-opacity:0.7;" x="109.483729" xlink:href="#m76ee1b0efc" y="320.756372"/>
     <use style="fill:#4f6a9a;fill-opacity:0.7;stroke:#4f6a9a;stroke-opacity:0.7;" x="86.58979" xlink:href="#m76ee1b0efc" y="362.848555"/>
     <use style="fill:#4f6a9a;fill-opacity:0.7;stroke:#4f6a9a;stroke-opacity:0.7;" x="116.596637" xlink:href="#m76ee1b0efc" y="312.241991"/>
     <use style="fill:#4f6a9a;fill-opacity:0.7;stroke:#4f6a9a;stroke-opacity:0.7;" x="70.950361" xlink:href="#m76ee1b0efc" y="334.60201"/>
     <use style="fill:#4f6a9a;fill-opacity:0.7;stroke:#4f6a9a;stroke-opacity:0.7;" x="146.689005" xlink:href="#m76ee1b0efc" y="369.974948"/>
     <use style="fill:#4f6a9a;fill-opacity:0.7;stroke:#4f6a9a;stroke-opacity:0.7;" x="157.242527" xlink:href="#m76ee1b0efc" y="354.570671"/>
    </g>
   </g>
   <g id="PathCollection_2">
    <defs>
     <path d="M 0 3 
C 0.795609 3 1.55874 2.683901 2.12132 2.12132 
C 2.683901 1.55874 3 0.795609 3 0 
C 3 -0.795609 2.683901 -1.55874 2.12132 -2.12132 
C 1.55874 -2.683901 0.795609 -3 0 -3 
C -0.795609 -3 -1.55874 -2.683901 -2.12132 -2.12132 
C -2.683901 -1.55874 -3 -0.795609 -3 0 
C -3 0.795609 -2.683901 1.55874 -2.12132 2.12132 
C -1.55874 2.683901 -0.795609 3 0 3 
z
" id="m695f305d93" style="stroke:#ac5255;stroke-opacity:0.7;"/>
    </defs>
    <g clip-path="url(#pd7f6fdafe9)">
     <use style="fill:#ac5255;fill-opacity:0.7;stroke:#ac5255;stroke-opacity:0.7;" x="340.449252" xlink:href="#m695f305d93" y="510.17924"/>
     <use style="fill:#ac5255;fill-opacity:0.7;stroke:#ac5255;stroke-opacity:0.7;" x="313.129032" xlink:href="#m695f305d93" y="437.04735"/>
     <use style="fill:#ac5255;fill-opacity:0.7;stroke:#ac5255;stroke-opacity:0.7;" x="355.479266" xlink:href="#m695f305d93" y="472.093227"/>
     <use style="fill:#ac5255;fill-opacity:0.7;stroke:#ac5255;stroke-opacity:0.7;" x="349.946831" xlink:href="#m695f305d93" y="466.312867"/>
     <use style="fill:#ac5255;fill-opacity:0.7;stroke:#ac5255;stroke-opacity:0.7;" x="339.857509" xlink:href="#m695f305d93" y="603.686015"/>
     <use style="fill:#ac5255;fill-opacity:0.7;stroke:#ac5255;stroke-opacity:0.7;" x="333.58405" xlink:href="#m695f305d93" y="441.357091"/>
     <use style="fill:#ac5255;fill-opacity:0.7;stroke:#ac5255;stroke-opacity:0.7;" x="283.934445" xlink:href="#m695f305d93" y="417.727992"/>
     <use style="fill:#ac5255;fill-opacity:0.7;stroke:#ac5255;stroke-opacity:0.7;" x="366.369774" xlink:href="#m695f305d93" y="448.80011"/>
     <use style="fill:#ac5255;fill-opacity:0.7;stroke:#ac5255;stroke-opacity:0.7;" x="315.619785" xlink:href="#m695f305d93" y="376.087769"/>
     <use style="fill:#ac5255;fill-opacity:0.7;stroke:#ac5255;stroke-opacity:0.7;" x="301.098407" xlink:href="#m695f305d93" y="401.220305"/>
     <use style="fill:#ac5255;fill-opacity:0.7;stroke:#ac5255;stroke-opacity:0.7;" x="370.465424" xlink:href="#m695f305d93" y="403.43615"/>
     <use style="fill:#ac5255;fill-opacity:0.7;stroke:#ac5255;stroke-opacity:0.7;" x="369.87593" xlink:href="#m695f305d93" y="437.537458"/>
     <use style="fill:#ac5255;fill-opacity:0.7;stroke:#ac5255;stroke-opacity:0.7;" x="314.777618" xlink:href="#m695f305d93" y="396.321898"/>
     <use style="fill:#ac5255;fill-opacity:0.7;stroke:#ac5255;stroke-opacity:0.7;" x="308.841278" xlink:href="#m695f305d93" y="460.781974"/>
     <use style="fill:#ac5255;fill-opacity:0.7;stroke:#ac5255;stroke-opacity:0.7;" x="304.521834" xlink:href="#m695f305d93" y="500.085487"/>
     <use style="fill:#ac5255;fill-opacity:0.7;stroke:#ac5255;stroke-opacity:0.7;" x="288.239381" xlink:href="#m695f305d93" y="392.56426"/>
     <use style="fill:#ac5255;fill-opacity:0.7;stroke:#ac5255;stroke-opacity:0.7;" x="372.480992" xlink:href="#m695f305d93" y="465.416701"/>
     <use style="fill:#ac5255;fill-opacity:0.7;stroke:#ac5255;stroke-opacity:0.7;" x="299.312867" xlink:href="#m695f305d93" y="494.731633"/>
     <use style="fill:#ac5255;fill-opacity:0.7;stroke:#ac5255;stroke-opacity:0.7;" x="265.823016" xlink:href="#m695f305d93" y="390.418516"/>
     <use style="fill:#ac5255;fill-opacity:0.7;stroke:#ac5255;stroke-opacity:0.7;" x="302.628625" xlink:href="#m695f305d93" y="408.000464"/>
     <use style="fill:#ac5255;fill-opacity:0.7;stroke:#ac5255;stroke-opacity:0.7;" x="265.614598" xlink:href="#m695f305d93" y="436.504174"/>
     <use style="fill:#ac5255;fill-opacity:0.7;stroke:#ac5255;stroke-opacity:0.7;" x="334.884784" xlink:href="#m695f305d93" y="415.468164"/>
     <use style="fill:#ac5255;fill-opacity:0.7;stroke:#ac5255;stroke-opacity:0.7;" x="332.499722" xlink:href="#m695f305d93" y="436.324039"/>
     <use style="fill:#ac5255;fill-opacity:0.7;stroke:#ac5255;stroke-opacity:0.7;" x="338.726009" xlink:href="#m695f305d93" y="406.59156"/>
     <use style="fill:#ac5255;fill-opacity:0.7;stroke:#ac5255;stroke-opacity:0.7;" x="308.655243" xlink:href="#m695f305d93" y="456.610162"/>
     <use style="fill:#ac5255;fill-opacity:0.7;stroke:#ac5255;stroke-opacity:0.7;" x="302.794889" xlink:href="#m695f305d93" y="435.751172"/>
     <use style="fill:#ac5255;fill-opacity:0.7;stroke:#ac5255;stroke-opacity:0.7;" x="279.90095" xlink:href="#m695f305d93" y="390.653203"/>
     <use style="fill:#ac5255;fill-opacity:0.7;stroke:#ac5255;stroke-opacity:0.7;" x="309.907797" xlink:href="#m695f305d93" y="433.154404"/>
     <use style="fill:#ac5255;fill-opacity:0.7;stroke:#ac5255;stroke-opacity:0.7;" x="264.261521" xlink:href="#m695f305d93" y="407.306719"/>
     <use style="fill:#ac5255;fill-opacity:0.7;stroke:#ac5255;stroke-opacity:0.7;" x="340.000166" xlink:href="#m695f305d93" y="384.595245"/>
     <use style="fill:#ac5255;fill-opacity:0.7;stroke:#ac5255;stroke-opacity:0.7;" x="350.553688" xlink:href="#m695f305d93" y="409.940287"/>
    </g>
   </g>
   <g id="line2d_1">
    <path clip-path="url(#pd7f6fdafe9)" d="M 147.138092 260.056575 
L 340.449252 510.17924 
" style="fill:none;stroke:#000000;stroke-dasharray:3.7,1.6;stroke-dashoffset:0;stroke-opacity:0.2;"/>
   </g>
   <g id="line2d_2">
    <path clip-path="url(#pd7f6fdafe9)" d="M 119.817872 285.240066 
L 313.129032 437.04735 
" style="fill:none;stroke:#000000;stroke-dasharray:3.7,1.6;stroke-dashoffset:0;stroke-opacity:0.2;"/>
   </g>
   <g id="line2d_3">
    <path clip-path="url(#pd7f6fdafe9)" d="M 162.168106 265.122778 
L 355.479266 472.093227 
" style="fill:none;stroke:#000000;stroke-dasharray:3.7,1.6;stroke-dashoffset:0;stroke-opacity:0.2;"/>
   </g>
   <g id="line2d_4">
    <path clip-path="url(#pd7f6fdafe9)" d="M 156.63567 272.309878 
L 349.946831 466.312867 
" style="fill:none;stroke:#000000;stroke-dasharray:3.7,1.6;stroke-dashoffset:0;stroke-opacity:0.2;"/>
   </g>
   <g id="line2d_5">
    <path clip-path="url(#pd7f6fdafe9)" d="M 146.546349 227.708407 
L 339.857509 603.686015 
" style="fill:none;stroke:#000000;stroke-dasharray:3.7,1.6;stroke-dashoffset:0;stroke-opacity:0.2;"/>
   </g>
   <g id="line2d_6">
    <path clip-path="url(#pd7f6fdafe9)" d="M 140.272889 311.653887 
L 333.58405 441.357091 
" style="fill:none;stroke:#000000;stroke-dasharray:3.7,1.6;stroke-dashoffset:0;stroke-opacity:0.2;"/>
   </g>
   <g id="line2d_7">
    <path clip-path="url(#pd7f6fdafe9)" d="M 90.623284 346.335186 
L 283.934445 417.727992 
" style="fill:none;stroke:#000000;stroke-dasharray:3.7,1.6;stroke-dashoffset:0;stroke-opacity:0.2;"/>
   </g>
   <g id="line2d_8">
    <path clip-path="url(#pd7f6fdafe9)" d="M 173.058614 314.383996 
L 366.369774 448.80011 
" style="fill:none;stroke:#000000;stroke-dasharray:3.7,1.6;stroke-dashoffset:0;stroke-opacity:0.2;"/>
   </g>
   <g id="line2d_9">
    <path clip-path="url(#pd7f6fdafe9)" d="M 122.308624 375.229422 
L 315.619785 376.087769 
" style="fill:none;stroke:#000000;stroke-dasharray:3.7,1.6;stroke-dashoffset:0;stroke-opacity:0.2;"/>
   </g>
   <g id="line2d_10">
    <path clip-path="url(#pd7f6fdafe9)" d="M 107.787246 111.358578 
L 301.098407 401.220305 
" style="fill:none;stroke:#000000;stroke-dasharray:3.7,1.6;stroke-dashoffset:0;stroke-opacity:0.2;"/>
   </g>
   <g id="line2d_11">
    <path clip-path="url(#pd7f6fdafe9)" d="M 177.154264 324.391862 
L 370.465424 403.43615 
" style="fill:none;stroke:#000000;stroke-dasharray:3.7,1.6;stroke-dashoffset:0;stroke-opacity:0.2;"/>
   </g>
   <g id="line2d_12">
    <path clip-path="url(#pd7f6fdafe9)" d="M 176.564769 323.609259 
L 369.87593 437.537458 
" style="fill:none;stroke:#000000;stroke-dasharray:3.7,1.6;stroke-dashoffset:0;stroke-opacity:0.2;"/>
   </g>
   <g id="line2d_13">
    <path clip-path="url(#pd7f6fdafe9)" d="M 121.466457 331.438655 
L 314.777618 396.321898 
" style="fill:none;stroke:#000000;stroke-dasharray:3.7,1.6;stroke-dashoffset:0;stroke-opacity:0.2;"/>
   </g>
   <g id="line2d_14">
    <path clip-path="url(#pd7f6fdafe9)" d="M 115.530117 294.15968 
L 308.841278 460.781974 
" style="fill:none;stroke:#000000;stroke-dasharray:3.7,1.6;stroke-dashoffset:0;stroke-opacity:0.2;"/>
   </g>
   <g id="line2d_15">
    <path clip-path="url(#pd7f6fdafe9)" d="M 111.210673 193.842477 
L 304.521834 500.085487 
" style="fill:none;stroke:#000000;stroke-dasharray:3.7,1.6;stroke-dashoffset:0;stroke-opacity:0.2;"/>
   </g>
   <g id="line2d_16">
    <path clip-path="url(#pd7f6fdafe9)" d="M 94.92822 271.762535 
L 288.239381 392.56426 
" style="fill:none;stroke:#000000;stroke-dasharray:3.7,1.6;stroke-dashoffset:0;stroke-opacity:0.2;"/>
   </g>
   <g id="line2d_17">
    <path clip-path="url(#pd7f6fdafe9)" d="M 179.169831 247.785671 
L 372.480992 465.416701 
" style="fill:none;stroke:#000000;stroke-dasharray:3.7,1.6;stroke-dashoffset:0;stroke-opacity:0.2;"/>
   </g>
   <g id="line2d_18">
    <path clip-path="url(#pd7f6fdafe9)" d="M 106.001706 252.622102 
L 299.312867 494.731633 
" style="fill:none;stroke:#000000;stroke-dasharray:3.7,1.6;stroke-dashoffset:0;stroke-opacity:0.2;"/>
   </g>
   <g id="line2d_19">
    <path clip-path="url(#pd7f6fdafe9)" d="M 72.511855 374.620583 
L 265.823016 390.418516 
" style="fill:none;stroke:#000000;stroke-dasharray:3.7,1.6;stroke-dashoffset:0;stroke-opacity:0.2;"/>
   </g>
   <g id="line2d_20">
    <path clip-path="url(#pd7f6fdafe9)" d="M 109.317465 351.764492 
L 302.628625 408.000464 
" style="fill:none;stroke:#000000;stroke-dasharray:3.7,1.6;stroke-dashoffset:0;stroke-opacity:0.2;"/>
   </g>
   <g id="line2d_21">
    <path clip-path="url(#pd7f6fdafe9)" d="M 72.303438 316.526915 
L 265.614598 436.504174 
" style="fill:none;stroke:#000000;stroke-dasharray:3.7,1.6;stroke-dashoffset:0;stroke-opacity:0.2;"/>
   </g>
   <g id="line2d_22">
    <path clip-path="url(#pd7f6fdafe9)" d="M 141.573623 341.885731 
L 334.884784 415.468164 
" style="fill:none;stroke:#000000;stroke-dasharray:3.7,1.6;stroke-dashoffset:0;stroke-opacity:0.2;"/>
   </g>
   <g id="line2d_23">
    <path clip-path="url(#pd7f6fdafe9)" d="M 139.188561 313.209341 
L 332.499722 436.324039 
" style="fill:none;stroke:#000000;stroke-dasharray:3.7,1.6;stroke-dashoffset:0;stroke-opacity:0.2;"/>
   </g>
   <g id="line2d_24">
    <path clip-path="url(#pd7f6fdafe9)" d="M 145.414848 342.950323 
L 338.726009 406.59156 
" style="fill:none;stroke:#000000;stroke-dasharray:3.7,1.6;stroke-dashoffset:0;stroke-opacity:0.2;"/>
   </g>
   <g id="line2d_25">
    <path clip-path="url(#pd7f6fdafe9)" d="M 115.344083 285.973827 
L 308.655243 456.610162 
" style="fill:none;stroke:#000000;stroke-dasharray:3.7,1.6;stroke-dashoffset:0;stroke-opacity:0.2;"/>
   </g>
   <g id="line2d_26">
    <path clip-path="url(#pd7f6fdafe9)" d="M 109.483729 320.756372 
L 302.794889 435.751172 
" style="fill:none;stroke:#000000;stroke-dasharray:3.7,1.6;stroke-dashoffset:0;stroke-opacity:0.2;"/>
   </g>
   <g id="line2d_27">
    <path clip-path="url(#pd7f6fdafe9)" d="M 86.58979 362.848555 
L 279.90095 390.653203 
" style="fill:none;stroke:#000000;stroke-dasharray:3.7,1.6;stroke-dashoffset:0;stroke-opacity:0.2;"/>
   </g>
   <g id="line2d_28">
    <path clip-path="url(#pd7f6fdafe9)" d="M 116.596637 312.241991 
L 309.907797 433.154404 
" style="fill:none;stroke:#000000;stroke-dasharray:3.7,1.6;stroke-dashoffset:0;stroke-opacity:0.2;"/>
   </g>
   <g id="line2d_29">
    <path clip-path="url(#pd7f6fdafe9)" d="M 70.950361 334.60201 
L 264.261521 407.306719 
" style="fill:none;stroke:#000000;stroke-dasharray:3.7,1.6;stroke-dashoffset:0;stroke-opacity:0.2;"/>
   </g>
   <g id="line2d_30">
    <path clip-path="url(#pd7f6fdafe9)" d="M 146.689005 369.974948 
L 340.000166 384.595245 
" style="fill:none;stroke:#000000;stroke-dasharray:3.7,1.6;stroke-dashoffset:0;stroke-opacity:0.2;"/>
   </g>
   <g id="line2d_31">
    <path clip-path="url(#pd7f6fdafe9)" d="M 157.242527 354.570671 
L 350.553688 409.940287 
" style="fill:none;stroke:#000000;stroke-dasharray:3.7,1.6;stroke-dashoffset:0;stroke-opacity:0.2;"/>
   </g>
   <g id="patch_3">
    <path d="M 54 630 
L 54 86.4 
" style="fill:none;stroke:#262626;stroke-linecap:square;stroke-linejoin:miter;stroke-width:1.25;"/>
   </g>
   <g id="patch_4">
    <path d="M 54 630 
L 388.8 630 
" style="fill:none;stroke:#262626;stroke-linecap:square;stroke-linejoin:miter;stroke-width:1.25;"/>
   </g>
  </g>
 </g>
 <defs>
  <clipPath id="pd7f6fdafe9">
   <rect height="543.6" width="334.8" x="54" y="86.4"/>
  </clipPath>
 </defs>
</svg>
